<svg width="40" height="30" viewBox="0 0 178 168" fill="none" xmlns="http://www.w3.org/2000/svg">
<path d="M111.396 101.11L136.642 117.544C137.914 118.372 138.995 119.461 139.813 120.739C142.06 124.251 142.06 128.749 139.813 132.261C138.995 133.539 137.914 134.628 136.642 135.456L111.396 151.89C109.902 152.863 109 154.526 109 156.309C109 160.267 113.198 162.814 116.708 160.986L167.401 134.586C167.894 134.329 168.364 134.028 168.802 133.685C173.475 130.035 173.475 122.965 168.802 119.315C168.364 118.972 167.894 118.671 167.401 118.414L116.708 92.0142C113.198 90.1862 109 92.7331 109 96.6909C109 98.4743 109.902 100.137 111.396 101.11Z" fill="#e8eaed" stroke="#e8eaed"/>
<path d="M22 165.021C8.00001 161.821 1.00002 146.478 1.00002 131C1.00002 131 3.50001 114.5 11 114.5C15 114.5 17.5 120.5 17.5 136.021C17.5 142.021 25.5 156.021 42 149.021C54.3937 143.763 51 126.021 50 116.021C49 106.021 36.6221 51.7618 35.5 48.0214C34 43.0214 34.6667 32.688 35.5 26.5214C36.6667 18.3547 44.8 1.82137 68 1.02137C91.2 0.221367 99.6667 22.0214 101 33.0214C101.5 45.8547 102.2 76.0214 101 94.0214C99.8 112.021 111.5 116.855 117.5 117.021C117.5 117.021 122.051 117.497 125 119.021C128.415 120.787 129 122 129 125.5C129 129.531 128.314 130.046 125 132.021C121.478 134.121 115.5 134.021 115.5 134.021C90.3 134.421 84.6667 108.188 85 95.0214C85.3334 77.5214 85.8 40.8214 85 34.0214C84 25.5214 77.5 18.0214 69.5 17.5214C61.5 17.0214 54.5 22.0214 51 29.5214C48.2 35.5214 56.1667 69.688 60.5 86.0214C64.6667 100.521 71.2 133.321 64 148.521C55 167.521 39.5 169.021 22 165.021Z" fill="#e8eaed" stroke="#e8eaed"/>
</svg>
