<svg width="1089" height="1225" viewBox="0 0 1089 1225" fill="none" xmlns="http://www.w3.org/2000/svg">
<path d="M996.699 25.5774L1039 1.1547L1081.3 25.5774V74.4226L1039 98.8453L996.699 74.4226V25.5774Z" fill="#0F0F10" stroke="#FFC107" stroke-width="2"/>
<path d="M480.699 25.5774L523 1.1547L565.301 25.5774V74.4226L523 98.8453L480.699 74.4226V25.5774Z" fill="#0F0F10" stroke="#FFC107" stroke-width="2"/>
<path d="M996.699 625.577L1039 601.155L1081.3 625.577V674.423L1039 698.845L996.699 674.423V625.577Z" fill="#0F0F10" stroke="#FFC107" stroke-width="2"/>
<path d="M480.699 625.577L523 601.155L565.301 625.577V674.423L523 698.845L480.699 674.423V625.577Z" fill="#0F0F10" stroke="#FFC107" stroke-width="2"/>
<path d="M738.699 25.5774L781 1.1547L823.301 25.5774V74.4226L781 98.8453L738.699 74.4226V25.5774Z" fill="#0F0F10" stroke="#FFC107" stroke-width="2"/>
<path d="M222.699 25.5774L265 1.1547L307.301 25.5774V74.4226L265 98.8453L222.699 74.4226V25.5774Z" fill="#0F0F10" stroke="#FFC107" stroke-width="2"/>
<path d="M738.699 625.577L781 601.155L823.301 625.577V674.423L781 698.845L738.699 674.423V625.577Z" fill="#0F0F10" stroke="#FFC107" stroke-width="2"/>
<path d="M222.699 625.577L265 601.155L307.301 625.577V674.423L265 698.845L222.699 674.423V625.577Z" fill="#0F0F10" stroke="#FFC107" stroke-width="2"/>
<path d="M867.699 100.577L910 76.1547L952.301 100.577V149.423L910 173.845L867.699 149.423V100.577Z" fill="#0F0F10" stroke="#FFC107" stroke-width="2"/>
<path d="M351.699 100.577L394 76.1547L436.301 100.577V149.423L394 173.845L351.699 149.423V100.577Z" fill="#0F0F10" stroke="#FFC107" stroke-width="2"/>
<path d="M867.699 700.577L910 676.155L952.301 700.577V749.423L910 773.845L867.699 749.423V700.577Z" fill="#0F0F10" stroke="#FFC107" stroke-width="2"/>
<path d="M351.699 700.577L394 676.155L436.301 700.577V749.423L394 773.845L351.699 749.423V700.577Z" fill="#0F0F10" stroke="#FFC107" stroke-width="2"/>
<path d="M609.699 100.577L652 76.1547L694.301 100.577V149.423L652 173.845L609.699 149.423V100.577Z" fill="#0F0F10" stroke="#FFC107" stroke-width="2"/>
<path d="M93.6987 100.577L136 76.1547L178.301 100.577V149.423L136 173.845L93.6987 149.423V100.577Z" fill="#0F0F10" stroke="#FFC107" stroke-width="2"/>
<path d="M609.699 700.577L652 676.155L694.301 700.577V749.423L652 773.845L609.699 749.423V700.577Z" fill="#0F0F10" stroke="#FFC107" stroke-width="2"/>
<path d="M93.6987 700.577L136 676.155L178.301 700.577V749.423L136 773.845L93.6987 749.423V700.577Z" fill="#0F0F10" stroke="#FFC107" stroke-width="2"/>
<path d="M996.699 325.577L1039 301.155L1081.3 325.577V374.423L1039 398.845L996.699 374.423V325.577Z" fill="#0F0F10" stroke="#FFC107" stroke-width="2"/>
<path d="M480.699 325.577L523 301.155L565.301 325.577V374.423L523 398.845L480.699 374.423V325.577Z" fill="#0F0F10" stroke="#FFC107" stroke-width="2"/>
<path d="M996.699 925.577L1039 901.155L1081.3 925.577V974.423L1039 998.845L996.699 974.423V925.577Z" fill="#0F0F10" stroke="#FFC107" stroke-width="2"/>
<path d="M480.699 925.577L523 901.155L565.301 925.577V974.423L523 998.845L480.699 974.423V925.577Z" fill="#0F0F10" stroke="#FFC107" stroke-width="2"/>
<path d="M738.699 325.577L781 301.155L823.301 325.577V374.423L781 398.845L738.699 374.423V325.577Z" fill="#0F0F10" stroke="#FFC107" stroke-width="2"/>
<path d="M222.699 325.577L265 301.155L307.301 325.577V374.423L265 398.845L222.699 374.423V325.577Z" fill="#0F0F10" stroke="#FFC107" stroke-width="2"/>
<path d="M738.699 925.577L781 901.155L823.301 925.577V974.423L781 998.845L738.699 974.423V925.577Z" fill="#0F0F10" stroke="#FFC107" stroke-width="2"/>
<path d="M222.699 925.577L265 901.155L307.301 925.577V974.423L265 998.845L222.699 974.423V925.577Z" fill="#0F0F10" stroke="#FFC107" stroke-width="2"/>
<path d="M867.699 400.577L910 376.155L952.301 400.577V449.423L910 473.845L867.699 449.423V400.577Z" fill="#0F0F10" stroke="#FFC107" stroke-width="2"/>
<path d="M351.699 400.577L394 376.155L436.301 400.577V449.423L394 473.845L351.699 449.423V400.577Z" fill="#0F0F10" stroke="#FFC107" stroke-width="2"/>
<path d="M867.699 1000.58L910 976.155L952.301 1000.58V1049.42L910 1073.85L867.699 1049.42V1000.58Z" fill="#0F0F10" stroke="#FFC107" stroke-width="2"/>
<path d="M351.699 1000.58L394 976.155L436.301 1000.58V1049.42L394 1073.85L351.699 1049.42V1000.58Z" fill="#0F0F10" stroke="#FFC107" stroke-width="2"/>
<path d="M609.699 400.577L652 376.155L694.301 400.577V449.423L652 473.845L609.699 449.423V400.577Z" fill="#0F0F10" stroke="#FFC107" stroke-width="2"/>
<path d="M93.6987 400.577L136 376.155L178.301 400.577V449.423L136 473.845L93.6987 449.423V400.577Z" fill="#0F0F10" stroke="#FFC107" stroke-width="2"/>
<path d="M609.699 1000.58L652 976.155L694.301 1000.58V1049.42L652 1073.85L609.699 1049.42V1000.58Z" fill="#0F0F10" stroke="#FFC107" stroke-width="2"/>
<path d="M93.6987 1000.58L136 976.155L178.301 1000.58V1049.42L136 1073.85L93.6987 1049.42V1000.58Z" fill="#0F0F10" stroke="#FFC107" stroke-width="2"/>
<path d="M996.699 175.577L1039 151.155L1081.3 175.577V224.423L1039 248.845L996.699 224.423V175.577Z" fill="#0F0F10" stroke="#FFC107" stroke-width="2"/>
<path d="M480.699 175.577L523 151.155L565.301 175.577V224.423L523 248.845L480.699 224.423V175.577Z" fill="#0F0F10" stroke="#FFC107" stroke-width="2"/>
<path d="M996.699 775.577L1039 751.155L1081.3 775.577V824.423L1039 848.845L996.699 824.423V775.577Z" fill="#0F0F10" stroke="#FFC107" stroke-width="2"/>
<path d="M480.699 775.577L523 751.155L565.301 775.577V824.423L523 848.845L480.699 824.423V775.577Z" fill="#0F0F10" stroke="#FFC107" stroke-width="2"/>
<path d="M738.699 175.577L781 151.155L823.301 175.577V224.423L781 248.845L738.699 224.423V175.577Z" fill="#0F0F10" stroke="#FFC107" stroke-width="2"/>
<path d="M222.699 175.577L265 151.155L307.301 175.577V224.423L265 248.845L222.699 224.423V175.577Z" fill="#0F0F10" stroke="#FFC107" stroke-width="2"/>
<path d="M738.699 775.577L781 751.155L823.301 775.577V824.423L781 848.845L738.699 824.423V775.577Z" fill="#0F0F10" stroke="#FFC107" stroke-width="2"/>
<path d="M222.699 775.577L265 751.155L307.301 775.577V824.423L265 848.845L222.699 824.423V775.577Z" fill="#0F0F10" stroke="#FFC107" stroke-width="2"/>
<path d="M867.699 250.577L910 226.155L952.301 250.577V299.423L910 323.845L867.699 299.423V250.577Z" fill="#0F0F10" stroke="#FFC107" stroke-width="2"/>
<path d="M351.699 250.577L394 226.155L436.301 250.577V299.423L394 323.845L351.699 299.423V250.577Z" fill="#0F0F10" stroke="#FFC107" stroke-width="2"/>
<path d="M867.699 850.577L910 826.155L952.301 850.577V899.423L910 923.845L867.699 899.423V850.577Z" fill="#0F0F10" stroke="#FFC107" stroke-width="2"/>
<path d="M351.699 850.577L394 826.155L436.301 850.577V899.423L394 923.845L351.699 899.423V850.577Z" fill="#0F0F10" stroke="#FFC107" stroke-width="2"/>
<path d="M609.699 250.577L652 226.155L694.301 250.577V299.423L652 323.845L609.699 299.423V250.577Z" fill="#0F0F10" stroke="#FFC107" stroke-width="2"/>
<path d="M93.6987 250.577L136 226.155L178.301 250.577V299.423L136 323.845L93.6987 299.423V250.577Z" fill="#0F0F10" stroke="#FFC107" stroke-width="2"/>
<path d="M609.699 850.577L652 826.155L694.301 850.577V899.423L652 923.845L609.699 899.423V850.577Z" fill="#0F0F10" stroke="#FFC107" stroke-width="2"/>
<path d="M93.6987 850.577L136 826.155L178.301 850.577V899.423L136 923.845L93.6987 899.423V850.577Z" fill="#0F0F10" stroke="#FFC107" stroke-width="2"/>
<path d="M996.699 475.577L1039 451.155L1081.3 475.577V524.423L1039 548.845L996.699 524.423V475.577Z" fill="#0F0F10" stroke="#FFC107" stroke-width="2"/>
<path d="M480.699 475.577L523 451.155L565.301 475.577V524.423L523 548.845L480.699 524.423V475.577Z" fill="#0F0F10" stroke="#FFC107" stroke-width="2"/>
<path d="M996.699 1075.58L1039 1051.15L1081.3 1075.58V1124.42L1039 1148.85L996.699 1124.42V1075.58Z" fill="#0F0F10" stroke="#FFC107" stroke-width="2"/>
<path d="M480.699 1075.58L523 1051.15L565.301 1075.58V1124.42L523 1148.85L480.699 1124.42V1075.58Z" fill="#0F0F10" stroke="#FFC107" stroke-width="2"/>
<path d="M738.699 475.577L781 451.155L823.301 475.577V524.423L781 548.845L738.699 524.423V475.577Z" fill="#0F0F10" stroke="#FFC107" stroke-width="2"/>
<path d="M222.699 475.577L265 451.155L307.301 475.577V524.423L265 548.845L222.699 524.423V475.577Z" fill="#0F0F10" stroke="#FFC107" stroke-width="2"/>
<path d="M738.699 1075.58L781 1051.15L823.301 1075.58V1124.42L781 1148.85L738.699 1124.42V1075.58Z" fill="#0F0F10" stroke="#FFC107" stroke-width="2"/>
<path d="M222.699 1075.58L265 1051.15L307.301 1075.58V1124.42L265 1148.85L222.699 1124.42V1075.58Z" fill="#0F0F10" stroke="#FFC107" stroke-width="2"/>
<path d="M867.699 550.577L910 526.155L952.301 550.577V599.423L910 623.845L867.699 599.423V550.577Z" fill="#0F0F10" stroke="#FFC107" stroke-width="2"/>
<path d="M351.699 550.577L394 526.155L436.301 550.577V599.423L394 623.845L351.699 599.423V550.577Z" fill="#0F0F10" stroke="#FFC107" stroke-width="2"/>
<path d="M867.699 1150.58L910 1126.15L952.301 1150.58V1199.42L910 1223.85L867.699 1199.42V1150.58Z" fill="#0F0F10" stroke="#FFC107" stroke-width="2"/>
<path d="M351.699 1150.58L394 1126.15L436.301 1150.58V1199.42L394 1223.85L351.699 1199.42V1150.58Z" fill="#0F0F10" stroke="#FFC107" stroke-width="2"/>
<path d="M609.699 550.577L652 526.155L694.301 550.577V599.423L652 623.845L609.699 599.423V550.577Z" fill="#0F0F10" stroke="#FFC107" stroke-width="2"/>
<path d="M93.6987 550.577L136 526.155L178.301 550.577V599.423L136 623.845L93.6987 599.423V550.577Z" fill="#0F0F10" stroke="#FFC107" stroke-width="2"/>
<path d="M609.699 1150.58L652 1126.15L694.301 1150.58V1199.42L652 1223.85L609.699 1199.42V1150.58Z" fill="#0F0F10" stroke="#FFC107" stroke-width="2"/>
<path d="M93.6987 1150.58L136 1126.15L178.301 1150.58V1199.42L136 1223.85L93.6987 1199.42V1150.58Z" fill="#0F0F10" stroke="#FFC107" stroke-width="2"/>
<path d="M910.699 25.5774L953 1.1547L995.301 25.5774V74.4226L953 98.8453L910.699 74.4226V25.5774Z" fill="#0F0F10" stroke="#FFC107" stroke-width="2"/>
<path d="M394.699 25.5774L437 1.1547L479.301 25.5774V74.4226L437 98.8453L394.699 74.4226V25.5774Z" fill="#0F0F10" stroke="#FFC107" stroke-width="2"/>
<path d="M910.699 625.577L953 601.155L995.301 625.577V674.423L953 698.845L910.699 674.423V625.577Z" fill="#0F0F10" stroke="#FFC107" stroke-width="2"/>
<path d="M394.699 625.577L437 601.155L479.301 625.577V674.423L437 698.845L394.699 674.423V625.577Z" fill="#0F0F10" stroke="#FFC107" stroke-width="2"/>
<path d="M652.699 25.5774L695 1.1547L737.301 25.5774V74.4226L695 98.8453L652.699 74.4226V25.5774Z" fill="#0F0F10" stroke="#FFC107" stroke-width="2"/>
<path d="M136.699 25.5774L179 1.1547L221.301 25.5774V74.4226L179 98.8453L136.699 74.4226V25.5774Z" fill="#0F0F10" stroke="#FFC107" stroke-width="2"/>
<path d="M652.699 625.577L695 601.155L737.301 625.577V674.423L695 698.845L652.699 674.423V625.577Z" fill="#0F0F10" stroke="#FFC107" stroke-width="2"/>
<path d="M136.699 625.577L179 601.155L221.301 625.577V674.423L179 698.845L136.699 674.423V625.577Z" fill="#0F0F10" stroke="#FFC107" stroke-width="2"/>
<path d="M781.699 100.577L824 76.1547L866.301 100.577V149.423L824 173.845L781.699 149.423V100.577Z" fill="#0F0F10" stroke="#FFC107" stroke-width="2"/>
<path d="M265.699 100.577L308 76.1547L350.301 100.577V149.423L308 173.845L265.699 149.423V100.577Z" fill="#0F0F10" stroke="#FFC107" stroke-width="2"/>
<path d="M781.699 700.577L824 676.155L866.301 700.577V749.423L824 773.845L781.699 749.423V700.577Z" fill="#0F0F10" stroke="#FFC107" stroke-width="2"/>
<path d="M265.699 700.577L308 676.155L350.301 700.577V749.423L308 773.845L265.699 749.423V700.577Z" fill="#0F0F10" stroke="#FFC107" stroke-width="2"/>
<path d="M523.699 100.577L566 76.1547L608.301 100.577V149.423L566 173.845L523.699 149.423V100.577Z" fill="#0F0F10" stroke="#FFC107" stroke-width="2"/>
<path d="M7.69873 100.577L50 76.1547L92.3013 100.577V149.423L50 173.845L7.69873 149.423V100.577Z" fill="#0F0F10" stroke="#FFC107" stroke-width="2"/>
<path d="M523.699 700.577L566 676.155L608.301 700.577V749.423L566 773.845L523.699 749.423V700.577Z" fill="#0F0F10" stroke="#FFC107" stroke-width="2"/>
<path d="M7.69873 700.577L50 676.155L92.3013 700.577V749.423L50 773.845L7.69873 749.423V700.577Z" fill="#0F0F10" stroke="#FFC107" stroke-width="2"/>
<path d="M910.699 325.577L953 301.155L995.301 325.577V374.423L953 398.845L910.699 374.423V325.577Z" fill="#0F0F10" stroke="#FFC107" stroke-width="2"/>
<path d="M394.699 325.577L437 301.155L479.301 325.577V374.423L437 398.845L394.699 374.423V325.577Z" fill="#0F0F10" stroke="#FFC107" stroke-width="2"/>
<path d="M910.699 925.577L953 901.155L995.301 925.577V974.423L953 998.845L910.699 974.423V925.577Z" fill="#0F0F10" stroke="#FFC107" stroke-width="2"/>
<path d="M394.699 925.577L437 901.155L479.301 925.577V974.423L437 998.845L394.699 974.423V925.577Z" fill="#0F0F10" stroke="#FFC107" stroke-width="2"/>
<path d="M652.699 325.577L695 301.155L737.301 325.577V374.423L695 398.845L652.699 374.423V325.577Z" fill="#0F0F10" stroke="#FFC107" stroke-width="2"/>
<path d="M136.699 325.577L179 301.155L221.301 325.577V374.423L179 398.845L136.699 374.423V325.577Z" fill="#0F0F10" stroke="#FFC107" stroke-width="2"/>
<path d="M652.699 925.577L695 901.155L737.301 925.577V974.423L695 998.845L652.699 974.423V925.577Z" fill="#0F0F10" stroke="#FFC107" stroke-width="2"/>
<path d="M136.699 925.577L179 901.155L221.301 925.577V974.423L179 998.845L136.699 974.423V925.577Z" fill="#0F0F10" stroke="#FFC107" stroke-width="2"/>
<path d="M781.699 400.577L824 376.155L866.301 400.577V449.423L824 473.845L781.699 449.423V400.577Z" fill="#0F0F10" stroke="#FFC107" stroke-width="2"/>
<path d="M265.699 400.577L308 376.155L350.301 400.577V449.423L308 473.845L265.699 449.423V400.577Z" fill="#0F0F10" stroke="#FFC107" stroke-width="2"/>
<path d="M781.699 1000.58L824 976.155L866.301 1000.58V1049.42L824 1073.85L781.699 1049.42V1000.58Z" fill="#0F0F10" stroke="#FFC107" stroke-width="2"/>
<path d="M265.699 1000.58L308 976.155L350.301 1000.58V1049.42L308 1073.85L265.699 1049.42V1000.58Z" fill="#0F0F10" stroke="#FFC107" stroke-width="2"/>
<path d="M523.699 400.577L566 376.155L608.301 400.577V449.423L566 473.845L523.699 449.423V400.577Z" fill="#0F0F10" stroke="#FFC107" stroke-width="2"/>
<path d="M7.69873 400.577L50 376.155L92.3013 400.577V449.423L50 473.845L7.69873 449.423V400.577Z" fill="#0F0F10" stroke="#FFC107" stroke-width="2"/>
<path d="M523.699 1000.58L566 976.155L608.301 1000.58V1049.42L566 1073.85L523.699 1049.42V1000.58Z" fill="#0F0F10" stroke="#FFC107" stroke-width="2"/>
<path d="M7.69873 1000.58L50 976.155L92.3013 1000.58V1049.42L50 1073.85L7.69873 1049.42V1000.58Z" fill="#0F0F10" stroke="#FFC107" stroke-width="2"/>
<path d="M910.699 175.577L953 151.155L995.301 175.577V224.423L953 248.845L910.699 224.423V175.577Z" fill="#0F0F10" stroke="#FFC107" stroke-width="2"/>
<path d="M394.699 175.577L437 151.155L479.301 175.577V224.423L437 248.845L394.699 224.423V175.577Z" fill="#0F0F10" stroke="#FFC107" stroke-width="2"/>
<path d="M910.699 775.577L953 751.155L995.301 775.577V824.423L953 848.845L910.699 824.423V775.577Z" fill="#0F0F10" stroke="#FFC107" stroke-width="2"/>
<path d="M394.699 775.577L437 751.155L479.301 775.577V824.423L437 848.845L394.699 824.423V775.577Z" fill="#0F0F10" stroke="#FFC107" stroke-width="2"/>
<path d="M652.699 175.577L695 151.155L737.301 175.577V224.423L695 248.845L652.699 224.423V175.577Z" fill="#0F0F10" stroke="#FFC107" stroke-width="2"/>
<path d="M136.699 175.577L179 151.155L221.301 175.577V224.423L179 248.845L136.699 224.423V175.577Z" fill="#0F0F10" stroke="#FFC107" stroke-width="2"/>
<path d="M652.699 775.577L695 751.155L737.301 775.577V824.423L695 848.845L652.699 824.423V775.577Z" fill="#0F0F10" stroke="#FFC107" stroke-width="2"/>
<path d="M136.699 775.577L179 751.155L221.301 775.577V824.423L179 848.845L136.699 824.423V775.577Z" fill="#0F0F10" stroke="#FFC107" stroke-width="2"/>
<path d="M781.699 250.577L824 226.155L866.301 250.577V299.423L824 323.845L781.699 299.423V250.577Z" fill="#0F0F10" stroke="#FFC107" stroke-width="2"/>
<path d="M265.699 250.577L308 226.155L350.301 250.577V299.423L308 323.845L265.699 299.423V250.577Z" fill="#0F0F10" stroke="#FFC107" stroke-width="2"/>
<path d="M781.699 850.577L824 826.155L866.301 850.577V899.423L824 923.845L781.699 899.423V850.577Z" fill="#0F0F10" stroke="#FFC107" stroke-width="2"/>
<path d="M265.699 850.577L308 826.155L350.301 850.577V899.423L308 923.845L265.699 899.423V850.577Z" fill="#0F0F10" stroke="#FFC107" stroke-width="2"/>
<path d="M523.699 250.577L566 226.155L608.301 250.577V299.423L566 323.845L523.699 299.423V250.577Z" fill="#0F0F10" stroke="#FFC107" stroke-width="2"/>
<path d="M7.69873 250.577L50 226.155L92.3013 250.577V299.423L50 323.845L7.69873 299.423V250.577Z" fill="#0F0F10" stroke="#FFC107" stroke-width="2"/>
<path d="M523.699 850.577L566 826.155L608.301 850.577V899.423L566 923.845L523.699 899.423V850.577Z" fill="#0F0F10" stroke="#FFC107" stroke-width="2"/>
<path d="M7.69873 850.577L50 826.155L92.3013 850.577V899.423L50 923.845L7.69873 899.423V850.577Z" fill="#0F0F10" stroke="#FFC107" stroke-width="2"/>
<path d="M910.699 475.577L953 451.155L995.301 475.577V524.423L953 548.845L910.699 524.423V475.577Z" fill="#0F0F10" stroke="#FFC107" stroke-width="2"/>
<path d="M394.699 475.577L437 451.155L479.301 475.577V524.423L437 548.845L394.699 524.423V475.577Z" fill="#0F0F10" stroke="#FFC107" stroke-width="2"/>
<path d="M910.699 1075.58L953 1051.15L995.301 1075.58V1124.42L953 1148.85L910.699 1124.42V1075.58Z" fill="#0F0F10" stroke="#FFC107" stroke-width="2"/>
<path d="M394.699 1075.58L437 1051.15L479.301 1075.58V1124.42L437 1148.85L394.699 1124.42V1075.58Z" fill="#0F0F10" stroke="#FFC107" stroke-width="2"/>
<path d="M652.699 475.577L695 451.155L737.301 475.577V524.423L695 548.845L652.699 524.423V475.577Z" fill="#0F0F10" stroke="#FFC107" stroke-width="2"/>
<path d="M136.699 475.577L179 451.155L221.301 475.577V524.423L179 548.845L136.699 524.423V475.577Z" fill="#0F0F10" stroke="#FFC107" stroke-width="2"/>
<path d="M652.699 1075.58L695 1051.15L737.301 1075.58V1124.42L695 1148.85L652.699 1124.42V1075.58Z" fill="#0F0F10" stroke="#FFC107" stroke-width="2"/>
<path d="M136.699 1075.58L179 1051.15L221.301 1075.58V1124.42L179 1148.85L136.699 1124.42V1075.58Z" fill="#0F0F10" stroke="#FFC107" stroke-width="2"/>
<path d="M781.699 550.577L824 526.155L866.301 550.577V599.423L824 623.845L781.699 599.423V550.577Z" fill="#0F0F10" stroke="#FFC107" stroke-width="2"/>
<path d="M265.699 550.577L308 526.155L350.301 550.577V599.423L308 623.845L265.699 599.423V550.577Z" fill="#0F0F10" stroke="#FFC107" stroke-width="2"/>
<path d="M781.699 1150.58L824 1126.15L866.301 1150.58V1199.42L824 1223.85L781.699 1199.42V1150.58Z" fill="#0F0F10" stroke="#FFC107" stroke-width="2"/>
<path d="M265.699 1150.58L308 1126.15L350.301 1150.58V1199.42L308 1223.85L265.699 1199.42V1150.58Z" fill="#0F0F10" stroke="#FFC107" stroke-width="2"/>
<path d="M523.699 550.577L566 526.155L608.301 550.577V599.423L566 623.845L523.699 599.423V550.577Z" fill="#0F0F10" stroke="#FFC107" stroke-width="2"/>
<path d="M7.69873 550.577L50 526.155L92.3013 550.577V599.423L50 623.845L7.69873 599.423V550.577Z" fill="#0F0F10" stroke="#FFC107" stroke-width="2"/>
<path d="M523.699 1150.58L566 1126.15L608.301 1150.58V1199.42L566 1223.85L523.699 1199.42V1150.58Z" fill="#0F0F10" stroke="#FFC107" stroke-width="2"/>
<path d="M7.69873 1150.58L50 1126.15L92.3013 1150.58V1199.42L50 1223.85L7.69873 1199.42V1150.58Z" fill="#0F0F10" stroke="#FFC107" stroke-width="2"/>
<path d="M953.699 550.577L996 526.155L1038.3 550.577V599.423L996 623.845L953.699 599.423V550.577Z" fill="#0F0F10" stroke="#FFC107" stroke-width="2"/>
<path d="M437.699 550.577L480 526.155L522.301 550.577V599.423L480 623.845L437.699 599.423V550.577Z" fill="#0F0F10" stroke="#FFC107" stroke-width="2"/>
<path d="M953.699 1150.58L996 1126.15L1038.3 1150.58V1199.42L996 1223.85L953.699 1199.42V1150.58Z" fill="#0F0F10" stroke="#FFC107" stroke-width="2"/>
<path d="M437.699 1150.58L480 1126.15L522.301 1150.58V1199.42L480 1223.85L437.699 1199.42V1150.58Z" fill="#0F0F10" stroke="#FFC107" stroke-width="2"/>
<path d="M695.699 550.577L738 526.155L780.301 550.577V599.423L738 623.845L695.699 599.423V550.577Z" fill="#0F0F10" stroke="#FFC107" stroke-width="2"/>
<path d="M179.699 550.577L222 526.155L264.301 550.577V599.423L222 623.845L179.699 599.423V550.577Z" fill="#0F0F10" stroke="#FFC107" stroke-width="2"/>
<path d="M695.699 1150.58L738 1126.15L780.301 1150.58V1199.42L738 1223.85L695.699 1199.42V1150.58Z" fill="#0F0F10" stroke="#FFC107" stroke-width="2"/>
<path d="M179.699 1150.58L222 1126.15L264.301 1150.58V1199.42L222 1223.85L179.699 1199.42V1150.58Z" fill="#0F0F10" stroke="#FFC107" stroke-width="2"/>
<path d="M824.699 25.5774L867 1.1547L909.301 25.5774V74.4226L867 98.8453L824.699 74.4226V25.5774Z" fill="#0F0F10" stroke="#FFC107" stroke-width="2"/>
<path d="M308.699 25.5774L351 1.1547L393.301 25.5774V74.4226L351 98.8453L308.699 74.4226V25.5774Z" fill="#0F0F10" stroke="#FFC107" stroke-width="2"/>
<path d="M824.699 625.577L867 601.155L909.301 625.577V674.423L867 698.845L824.699 674.423V625.577Z" fill="#0F0F10" stroke="#FFC107" stroke-width="2"/>
<path d="M308.699 625.577L351 601.155L393.301 625.577V674.423L351 698.845L308.699 674.423V625.577Z" fill="#0F0F10" stroke="#FFC107" stroke-width="2"/>
<path d="M566.699 25.5774L609 1.1547L651.301 25.5774V74.4226L609 98.8453L566.699 74.4226V25.5774Z" fill="#0F0F10" stroke="#FFC107" stroke-width="2"/>
<path d="M50.6987 25.5774L93 1.1547L135.301 25.5774V74.4226L93 98.8453L50.6987 74.4226V25.5774Z" fill="#0F0F10" stroke="#FFC107" stroke-width="2"/>
<path d="M566.699 625.577L609 601.155L651.301 625.577V674.423L609 698.845L566.699 674.423V625.577Z" fill="#0F0F10" stroke="#FFC107" stroke-width="2"/>
<path d="M50.6987 625.577L93 601.155L135.301 625.577V674.423L93 698.845L50.6987 674.423V625.577Z" fill="#0F0F10" stroke="#FFC107" stroke-width="2"/>
<path d="M953.699 250.577L996 226.155L1038.3 250.577V299.423L996 323.845L953.699 299.423V250.577Z" fill="#0F0F10" stroke="#FFC107" stroke-width="2"/>
<path d="M437.699 250.577L480 226.155L522.301 250.577V299.423L480 323.845L437.699 299.423V250.577Z" fill="#0F0F10" stroke="#FFC107" stroke-width="2"/>
<path d="M953.699 850.577L996 826.155L1038.3 850.577V899.423L996 923.845L953.699 899.423V850.577Z" fill="#0F0F10" stroke="#FFC107" stroke-width="2"/>
<path d="M437.699 850.577L480 826.155L522.301 850.577V899.423L480 923.845L437.699 899.423V850.577Z" fill="#0F0F10" stroke="#FFC107" stroke-width="2"/>
<path d="M695.699 250.577L738 226.155L780.301 250.577V299.423L738 323.845L695.699 299.423V250.577Z" fill="#0F0F10" stroke="#FFC107" stroke-width="2"/>
<path d="M179.699 250.577L222 226.155L264.301 250.577V299.423L222 323.845L179.699 299.423V250.577Z" fill="#0F0F10" stroke="#FFC107" stroke-width="2"/>
<path d="M695.699 850.577L738 826.155L780.301 850.577V899.423L738 923.845L695.699 899.423V850.577Z" fill="#0F0F10" stroke="#FFC107" stroke-width="2"/>
<path d="M179.699 850.577L222 826.155L264.301 850.577V899.423L222 923.845L179.699 899.423V850.577Z" fill="#0F0F10" stroke="#FFC107" stroke-width="2"/>
<path d="M824.699 325.577L867 301.155L909.301 325.577V374.423L867 398.845L824.699 374.423V325.577Z" fill="#0F0F10" stroke="#FFC107" stroke-width="2"/>
<path d="M308.699 325.577L351 301.155L393.301 325.577V374.423L351 398.845L308.699 374.423V325.577Z" fill="#0F0F10" stroke="#FFC107" stroke-width="2"/>
<path d="M824.699 925.577L867 901.155L909.301 925.577V974.423L867 998.845L824.699 974.423V925.577Z" fill="#0F0F10" stroke="#FFC107" stroke-width="2"/>
<path d="M308.699 925.577L351 901.155L393.301 925.577V974.423L351 998.845L308.699 974.423V925.577Z" fill="#0F0F10" stroke="#FFC107" stroke-width="2"/>
<path d="M566.699 325.577L609 301.155L651.301 325.577V374.423L609 398.845L566.699 374.423V325.577Z" fill="#0F0F10" stroke="#FFC107" stroke-width="2"/>
<path d="M50.6987 325.577L93 301.155L135.301 325.577V374.423L93 398.845L50.6987 374.423V325.577Z" fill="#0F0F10" stroke="#FFC107" stroke-width="2"/>
<path d="M566.699 925.577L609 901.155L651.301 925.577V974.423L609 998.845L566.699 974.423V925.577Z" fill="#0F0F10" stroke="#FFC107" stroke-width="2"/>
<path d="M50.6987 925.577L93 901.155L135.301 925.577V974.423L93 998.845L50.6987 974.423V925.577Z" fill="#0F0F10" stroke="#FFC107" stroke-width="2"/>
<path d="M953.699 100.577L996 76.1547L1038.3 100.577V149.423L996 173.845L953.699 149.423V100.577Z" fill="#0F0F10" stroke="#FFC107" stroke-width="2"/>
<path d="M437.699 100.577L480 76.1547L522.301 100.577V149.423L480 173.845L437.699 149.423V100.577Z" fill="#0F0F10" stroke="#FFC107" stroke-width="2"/>
<path d="M953.699 700.577L996 676.155L1038.3 700.577V749.423L996 773.845L953.699 749.423V700.577Z" fill="#0F0F10" stroke="#FFC107" stroke-width="2"/>
<path d="M437.699 700.577L480 676.155L522.301 700.577V749.423L480 773.845L437.699 749.423V700.577Z" fill="#0F0F10" stroke="#FFC107" stroke-width="2"/>
<path d="M695.699 100.577L738 76.1547L780.301 100.577V149.423L738 173.845L695.699 149.423V100.577Z" fill="#0F0F10" stroke="#FFC107" stroke-width="2"/>
<path d="M179.699 100.577L222 76.1547L264.301 100.577V149.423L222 173.845L179.699 149.423V100.577Z" fill="#0F0F10" stroke="#FFC107" stroke-width="2"/>
<path d="M695.699 700.577L738 676.155L780.301 700.577V749.423L738 773.845L695.699 749.423V700.577Z" fill="#0F0F10" stroke="#FFC107" stroke-width="2"/>
<path d="M179.699 700.577L222 676.155L264.301 700.577V749.423L222 773.845L179.699 749.423V700.577Z" fill="#0F0F10" stroke="#FFC107" stroke-width="2"/>
<path d="M824.699 175.577L867 151.155L909.301 175.577V224.423L867 248.845L824.699 224.423V175.577Z" fill="#0F0F10" stroke="#FFC107" stroke-width="2"/>
<path d="M308.699 175.577L351 151.155L393.301 175.577V224.423L351 248.845L308.699 224.423V175.577Z" fill="#0F0F10" stroke="#FFC107" stroke-width="2"/>
<path d="M824.699 775.577L867 751.155L909.301 775.577V824.423L867 848.845L824.699 824.423V775.577Z" fill="#0F0F10" stroke="#FFC107" stroke-width="2"/>
<path d="M308.699 775.577L351 751.155L393.301 775.577V824.423L351 848.845L308.699 824.423V775.577Z" fill="#0F0F10" stroke="#FFC107" stroke-width="2"/>
<path d="M566.699 175.577L609 151.155L651.301 175.577V224.423L609 248.845L566.699 224.423V175.577Z" fill="#0F0F10" stroke="#FFC107" stroke-width="2"/>
<path d="M50.6987 175.577L93 151.155L135.301 175.577V224.423L93 248.845L50.6987 224.423V175.577Z" fill="#0F0F10" stroke="#FFC107" stroke-width="2"/>
<path d="M566.699 775.577L609 751.155L651.301 775.577V824.423L609 848.845L566.699 824.423V775.577Z" fill="#0F0F10" stroke="#FFC107" stroke-width="2"/>
<path d="M50.6987 775.577L93 751.155L135.301 775.577V824.423L93 848.845L50.6987 824.423V775.577Z" fill="#0F0F10" stroke="#FFC107" stroke-width="2"/>
<path d="M953.699 400.577L996 376.155L1038.3 400.577V449.423L996 473.845L953.699 449.423V400.577Z" fill="#0F0F10" stroke="#FFC107" stroke-width="2"/>
<path d="M437.699 400.577L480 376.155L522.301 400.577V449.423L480 473.845L437.699 449.423V400.577Z" fill="#0F0F10" stroke="#FFC107" stroke-width="2"/>
<path d="M953.699 1000.58L996 976.155L1038.3 1000.58V1049.42L996 1073.85L953.699 1049.42V1000.58Z" fill="#0F0F10" stroke="#FFC107" stroke-width="2"/>
<path d="M437.699 1000.58L480 976.155L522.301 1000.58V1049.42L480 1073.85L437.699 1049.42V1000.58Z" fill="#0F0F10" stroke="#FFC107" stroke-width="2"/>
<path d="M695.699 400.577L738 376.155L780.301 400.577V449.423L738 473.845L695.699 449.423V400.577Z" fill="#0F0F10" stroke="#FFC107" stroke-width="2"/>
<path d="M179.699 400.577L222 376.155L264.301 400.577V449.423L222 473.845L179.699 449.423V400.577Z" fill="#0F0F10" stroke="#FFC107" stroke-width="2"/>
<path d="M695.699 1000.58L738 976.155L780.301 1000.58V1049.42L738 1073.85L695.699 1049.42V1000.58Z" fill="#0F0F10" stroke="#FFC107" stroke-width="2"/>
<path d="M179.699 1000.58L222 976.155L264.301 1000.58V1049.42L222 1073.85L179.699 1049.42V1000.58Z" fill="#0F0F10" stroke="#FFC107" stroke-width="2"/>
<path d="M824.699 475.577L867 451.155L909.301 475.577V524.423L867 548.845L824.699 524.423V475.577Z" fill="#0F0F10" stroke="#FFC107" stroke-width="2"/>
<path d="M308.699 475.577L351 451.155L393.301 475.577V524.423L351 548.845L308.699 524.423V475.577Z" fill="#0F0F10" stroke="#FFC107" stroke-width="2"/>
<path d="M824.699 1075.58L867 1051.15L909.301 1075.58V1124.42L867 1148.85L824.699 1124.42V1075.58Z" fill="#0F0F10" stroke="#FFC107" stroke-width="2"/>
<path d="M308.699 1075.58L351 1051.15L393.301 1075.58V1124.42L351 1148.85L308.699 1124.42V1075.58Z" fill="#0F0F10" stroke="#FFC107" stroke-width="2"/>
<path d="M566.699 475.577L609 451.155L651.301 475.577V524.423L609 548.845L566.699 524.423V475.577Z" fill="#0F0F10" stroke="#FFC107" stroke-width="2"/>
<path d="M50.6987 475.577L93 451.155L135.301 475.577V524.423L93 548.845L50.6987 524.423V475.577Z" fill="#0F0F10" stroke="#FFC107" stroke-width="2"/>
<path d="M566.699 1075.58L609 1051.15L651.301 1075.58V1124.42L609 1148.85L566.699 1124.42V1075.58Z" fill="#0F0F10" stroke="#FFC107" stroke-width="2"/>
<path d="M50.6987 1075.58L93 1051.15L135.301 1075.58V1124.42L93 1148.85L50.6987 1124.42V1075.58Z" fill="#0F0F10" stroke="#FFC107" stroke-width="2"/>
</svg>
