<svg width="110" height="153" viewBox="0 0 110 153" fill="none" xmlns="http://www.w3.org/2000/svg">
<path d="M102 1.00001H21C14 1.16667 0 4.80001 0 18C0 34.5 26.5 34 30 34C32.8 34 69.8333 33.6667 88 33.5C92 33.3333 100 34.4 100 40C100 45.6 92 46.6667 88 46.5H36C29.3333 46.3333 16 49.4 16 63C16 80 36 79 40 79H73C76.6667 79 84 80.4 84 86C84 91.6 70.6667 92 64 91.5C58.8333 91.5 48.5 94 48.5 104V115.5C48.8333 116.833 50.2 119.5 53 119.5C56.5 119.5 58.5 117 58.5 115.5V105.5C58.5 104.167 59.8 101.5 65 101.5H72.5C79.6667 101.833 94 99.2 94 86C94 69.5 76 69 73 69H39C34.6667 69 26 67.8 26 63C26 57 32.5 56 39 56H88C95.3333 56.1667 110 53.2 110 40C110 23.5 92.5 23.5 88 23.5H30C23.3333 23.8333 10 23.2 10 18C10 11.5 14.5 11 30 11H102C104.667 11.1667 110 10.4 110 6.00001C110 1.60001 104.667 0.83334 102 1.00001Z" fill="#e8eaed"/>
<path d="M71.1936 110.057L59.669 127.761C59.0885 128.653 58.3247 129.411 57.4285 129.985C54.9658 131.561 51.8112 131.561 49.3485 129.985C48.4523 129.411 47.6885 128.653 47.108 127.761L35.5833 110.057C34.901 109.009 33.7351 108.377 32.4845 108.377C29.709 108.377 27.923 111.321 29.2049 113.782L47.7178 149.331C47.8981 149.677 48.1097 150.006 48.3499 150.314C50.9098 153.591 55.8672 153.591 58.427 150.314C58.6673 150.006 58.8789 149.677 59.0592 149.331L77.5721 113.782C78.854 111.321 77.0679 108.377 74.2925 108.377C73.0419 108.377 71.876 109.009 71.1936 110.057Z" fill="#e8eaed"/>
</svg>
