<svg width="201" height="171" viewBox="0 0 201 171" fill="none" xmlns="http://www.w3.org/2000/svg">
<path fill-rule="evenodd" clip-rule="evenodd" d="M86.2798 164.932L113.826 139.467L139.964 153.55C141.768 154.636 146.352 156.898 150.255 157.267C154.159 157.636 157.585 153.327 158.81 151.127L199.734 14.8976C200.314 12.3898 200.628 6.76299 197.246 4.31793C193.018 1.2616 189.575 0.662416 187.598 1.43784C186.015 2.05818 168.213 9.1845 159.509 12.6701L8.03349 73.6498C5.79659 74.5346 1.34421 77.755 1.42984 83.558C1.51548 89.361 6.16971 92.0984 8.48612 92.7418L47.1251 106.26L67.8313 163.836C69.2984 167.659 76.6613 172.151 80.4905 169.508C84.3197 166.866 86.2798 164.932 86.2798 164.932ZM76.213 116.67L72.885 155.378L55.1022 104.914L137.641 54.1425C117.68 74.043 77.6008 114.017 76.9748 114.708C76.3487 115.399 76.2061 116.304 76.213 116.67ZM160.993 30.357L49.7646 98.9043L11.0735 85.2969C10.7118 85.2415 9.85866 84.7863 9.34006 83.4082C8.82145 82.03 10.7676 80.9621 11.8055 80.6005C69.1949 57.5437 184.451 11.2303 186.359 10.4314C188.744 9.43281 190.483 9.27566 191.777 9.74861C192.812 10.127 192.417 12.1684 192.09 13.1418C178.918 57.1355 152.44 145.61 151.897 147.561C151.355 149.512 149.567 149.379 148.74 149.069L87.6611 116.453C113.216 90.582 164.675 38.4387 166.079 36.8315C167.833 34.8225 169.409 33.1384 167.291 30.5135C165.598 28.4136 162.387 29.5342 160.993 30.357ZM80.6878 159.972L83.6109 123.406L106.57 136.048L80.6878 159.972Z" fill="white" stroke="black"/>
</svg>
